<svg xmlns="http://www.w3.org/2000/svg" version="1.1" xmlns:xlink="http://www.w3.org/1999/xlink" width="512" height="512" x="0" y="0" viewBox="0 0 64 64" style="enable-background:new 0 0 512 512" xml:space="preserve" class=""><g><path fill="#d00000" d="M55 8c0 2.64-.62 4.57-1.67 5.95-.02.03-.03.05-.05.07-2.18 2.82-6.12 3.34-10.02 2.96-3.35-.32-6.67-1.3-8.83-2.05.36-.82.57-1.84.57-2.93 0-2.15-.81-3.98-1.96-4.69C37.53 4.51 54.99-5.79 55 8z" opacity="1" data-original="#d00000" class=""></path><path fill="#bc0404" d="M34.899 13.233a6.756 6.756 0 0 1-.469 1.697c2.16.75 5.48 1.73 8.83 2.05 3.9.38 7.84-.14 10.02-2.96.02-.02.03-.04.05-.07C54.38 12.57 55 10.64 55 8a12.167 12.167 0 0 0-.225-2.415c-3.321 6.742-12.487 8.021-19.876 7.648z" opacity="1" data-original="#bc0404"></path><path fill="#d00000" d="M9 8c.03-13.76 17.49-3.47 21.96-.69C29.81 8.02 29 9.85 29 12c0 1.09.21 2.11.57 2.93-2.16.75-5.48 1.73-8.83 2.05-3.91.38-7.86-.14-10.04-2.98-1.06-1.39-1.71-3.33-1.7-6z" opacity="1" data-original="#d00000" class=""></path><path fill="#bc0404" d="M10.123 3.281C9.418 4.373 9.005 5.904 9 8c-.01 2.67.64 4.61 1.7 6 2.18 2.84 6.13 3.36 10.04 2.98 3.35-.32 6.67-1.3 8.83-2.05a6.852 6.852 0 0 1-.481-1.785c-7.653-.285-15.12-3.142-18.966-9.864z" opacity="1" data-original="#bc0404"></path><ellipse cx="32" cy="12" fill="#dc2f02" rx="3" ry="5" opacity="1" data-original="#dc2f02"></ellipse><path fill="#d00000" d="M35 12c0 2.76-1.34 5-3 5s-3-2.24-3-5c0-.52.05-1.02.14-1.49C29.52 12.53 30.66 14 32 14s2.48-1.47 2.86-3.49c.09.47.14.97.14 1.49z" opacity="1" data-original="#d00000" class=""></path><path fill="#ffc008" d="M38 29h3.6l.07-.01c.36 2.01.5 4.33.33 7.01l3-3 4 4s.15-3.56-.65-8H60v32c0 1.1-.9 2-2 2H37V29zM27 29v34H6c-1.1 0-2-.9-2-2V29h11.65c-.8 4.44-.65 8-.65 8l4-4 3 3c-.17-2.68-.03-5 .33-7.01l.07.01H26z" opacity="1" data-original="#ffc008"></path><path fill="#d00000" d="M27 29h10v34H27z" opacity="1" data-original="#d00000" class=""></path><path fill="#ff9700" d="M15.65 29c-.19 1.06-.33 2.08-.42 3H4v-3zM27 29v3h-5.01c.05-1.08.17-2.08.34-3.01l.07.01z" opacity="1" data-original="#ff9700"></path><path fill="#890711" d="M27 29h10v3H27z" opacity="1" data-original="#890711"></path><path fill="#ff9700" d="M42.01 32H37v-3h4.6l.07-.01c.17.93.29 1.93.34 3.01z" opacity="1" data-original="#ff9700"></path><path fill="#fbde08" d="M63 15.02V28c0 .55-.45 1-1 1H48.35c-.69-3.95-2.14-8.58-5.09-12.02 3.9.38 7.84-.14 10.02-2.96H62c.55 0 1 .45 1 1zM41.67 28.99l-.07.01H38v-8.49c1.53 1.87 3 4.59 3.67 8.48z" opacity="1" data-original="#fbde08"></path><path fill="#f9af0b" d="M63 15.02V28c0 .55-.45 1-1 1H48.35c-.12-.65-.25-1.32-.41-2h10.006A3.054 3.054 0 0 0 61 23.946V14.02h1c.55 0 1 .45 1 1zM41.67 28.99l-.07.01H38v-2h3.24c.17.63.31 1.29.43 1.99z" opacity="1" data-original="#f9af0b"></path><path fill="#fbde08" d="M26 20.51V29h-3.6l-.07-.01c.67-3.89 2.14-6.61 3.67-8.48zM10.7 14c2.18 2.84 6.13 3.36 10.04 2.98-2.95 3.44-4.4 8.07-5.09 12.02H2c-.55 0-1-.45-1-1V15c0-.55.45-1 1-1z" opacity="1" data-original="#fbde08"></path><path fill="#ff9700" d="M27 59v4H6c-1.1 0-2-.9-2-2v-2z" opacity="1" data-original="#ff9700"></path><path fill="#9d0208" d="M27 59h10v4H27z" opacity="1" data-original="#9d0208"></path><path fill="#bc0404" d="M31 16.72c.31.18.65.28 1 .28s.68-.1.99-.28c0 0 2.59.85 5.01 3.79V29H26v-8.49c2.41-2.94 5-3.79 5-3.79z" opacity="1" data-original="#bc0404"></path><path fill="#f9af0b" d="M26 27v2h-3.6l-.07-.01c.12-.7.26-1.36.43-1.99zM16.06 27c-.16.68-.29 1.35-.41 2H2c-.55 0-1-.45-1-1v-1z" opacity="1" data-original="#f9af0b"></path><path fill="#9d0208" d="M26 27h12v2H26z" opacity="1" data-original="#9d0208"></path><path fill="#890711" d="M38 20.51v3c-2.42-2.94-5.01-3.79-5.01-3.79-.31.18-.64.28-.99.28s-.69-.1-1-.28c0 0-2.59.85-5 3.79v-3c2.41-2.94 5-3.79 5-3.79.31.18.65.28 1 .28s.68-.1.99-.28c0 0 2.59.85 5.01 3.79z" opacity="1" data-original="#890711"></path><path fill="#d00000" d="M48.35 29c.8 4.44.65 8 .65 8l-4-4-3 3c.17-2.68.03-5-.33-7.01-.67-3.89-2.14-6.61-3.67-8.48-2.42-2.94-5.01-3.79-5.01-3.79.59-.34 1.09-.97 1.44-1.79 2.16.75 5.48 1.73 8.83 2.05 2.95 3.44 4.4 8.07 5.09 12.02z" opacity="1" data-original="#d00000" class=""></path><path fill="#ff9700" d="M44.055 36.809c.029-.994.013-1.935-.045-2.819L45 33l2 2-2.15 2.15a.466.466 0 0 1-.795-.341z" opacity="1" data-original="#ff9700"></path><path fill="#ff9700" d="M48.35 29c.19 1.06.33 2.08.42 3h.005c.311 2.939.225 5 .225 5l1.015 1.015c.368.368.999.105.989-.416A42.984 42.984 0 0 0 50.516 32H51a5 5 0 0 1 5 5v20a2 2 0 0 1-2 2H37v4h21c1.1 0 2-.9 2-2V29z" opacity="1" data-original="#ff9700"></path><path fill="#f9af0b" d="M49.94 29h-1.59c-.69-3.95-2.14-8.58-5.09-12.02.72.07 1.43.11 2.14.11 2.01 3.54 3.89 9.12 4.54 11.91z" opacity="1" data-original="#f9af0b"></path><path fill="#9d0208" d="M45.32 19.97c-3.41-.26-6.78-.91-9.42-1.54-1.62-1.29-2.91-1.71-2.91-1.71.59-.34 1.09-.97 1.44-1.79 2.16.75 5.48 1.73 8.83 2.05.79.92 1.48 1.93 2.06 2.99z" opacity="1" data-original="#9d0208"></path><path fill="#d00000" d="M29.57 14.93c.35.81.85 1.44 1.43 1.79 0 0-2.59.85-5 3.79-1.53 1.87-3 4.59-3.67 8.48-.36 2.01-.5 4.33-.33 7.01l-3-3-4 4s-.15-3.56.65-8c.69-3.95 2.14-8.58 5.09-12.02 3.35-.32 6.67-1.3 8.83-2.05z" opacity="1" data-original="#d00000" class=""></path><path fill="#ff7f00" d="M23.33 30.99c-.31 1.73-.457 3.689-.383 5.909.013.389-.448.599-.723.325L20 35l-3.283 3.283c-.269.269-.73.083-.727-.298.004-.518.021-1.214.07-2.045L19 33l3 3c-.17-2.68-.03-5 .33-7.01l.07.01h1.36c-.17.63-.31 1.29-.43 1.99z" opacity="1" data-original="#ff7f00"></path><path fill="#f9af0b" d="M26 20.51v3.37c-.87 1.35-1.68 3.04-2.24 5.12H22.4l-.07-.01c.67-3.89 2.14-6.61 3.67-8.48z" opacity="1" data-original="#f9af0b"></path><path fill="#9d0208" d="M31 16.72s-1.29.42-2.9 1.71c-2.64.63-6.01 1.28-9.42 1.54.58-1.06 1.27-2.07 2.06-2.99 3.35-.32 6.67-1.3 8.83-2.05.35.81.85 1.44 1.43 1.79z" opacity="1" data-original="#9d0208"></path><path fill="#f75b3c" d="M31.196 9.533C30.552 9.533 30.355 11 31 11c.643 0 .84-1.467.196-1.467z" opacity="1" data-original="#f75b3c"></path><path fill="#f7edc6" d="M4.448 15.43c-.791-.124-1.408.498-1.724 1.29-.446 1.118-.56 2.586.558 2.761.83.13.613-1.003.913-1.85.389-1.101 1.332-2.033.253-2.201z" opacity="1" data-original="#f7edc6"></path><path fill="#f75b3c" d="M14.239 3.022C12.309 3.022 10.066 6 12 6c1.93 0 4.173-2.978 2.239-2.978z" opacity="1" data-original="#f75b3c"></path><path fill="#f7edc6" d="M3.274 19.87c-.643 0-.645 1 0 1 .644 0 .645-1 0-1z" opacity="1" data-original="#f7edc6"></path></g></svg>