<svg xmlns="http://www.w3.org/2000/svg" xml:space="preserve" width="512" height="512" viewBox="0 0 682.667 682.667"><defs><clipPath id="b" clipPathUnits="userSpaceOnUse"><path d="M0 512h512V0H0Z" data-original="#000000"/></clipPath></defs><mask id="a"><path fill="#fff" d="M0 0h682.667v682.667H0z" data-original="#ffffff"/><path fill="#fff" d="M0 0c-11.046 0-20-8.954-20-20s8.954-20 20-20 20 8.954 20 20S11.046 0 0 0" data-original="#ffffff" style="fill-opacity:1;fill-rule:nonzero;stroke:none" transform="matrix(1.33333 0 0 -1.33333 166.667 253.333)"/><path fill="#fff" d="M0 0c-11.046 0-20-8.954-20-20s8.954-20 20-20 20 8.954 20 20S11.046 0 0 0" data-original="#ffffff" style="fill-opacity:1;fill-rule:nonzero;stroke:none" transform="matrix(1.33333 0 0 -1.33333 282.667 253.333)"/><path fill="#fff" d="M0 0c-11.046 0-20-8.954-20-20s8.954-20 20-20 20 8.954 20 20S11.046 0 0 0" data-original="#ffffff" style="fill-opacity:1;fill-rule:nonzero;stroke:none" transform="matrix(1.33333 0 0 -1.33333 398.667 253.333)"/><path fill="#fff" d="M0 0c-11.046 0-20-8.954-20-20s8.954-20 20-20 20 8.954 20 20S11.046 0 0 0" data-original="#ffffff" style="fill-opacity:1;fill-rule:nonzero;stroke:none" transform="matrix(1.33333 0 0 -1.33333 514.667 253.333)"/><path fill="#fff" d="M0 0c0 11.046-8.954 20-20 20s-20-8.954-20-20 8.954-20 20-20S0-11.046 0 0" data-original="#ffffff" style="fill-opacity:1;fill-rule:nonzero;stroke:none" transform="matrix(1.33333 0 0 -1.33333 193.333 396)"/><path fill="#fff" d="M0 0c0 11.046-8.954 20-20 20s-20-8.954-20-20 8.954-20 20-20S0-11.046 0 0" data-original="#ffffff" style="fill-opacity:1;fill-rule:nonzero;stroke:none" transform="matrix(1.33333 0 0 -1.33333 193.333 512)"/><path fill="#fff" d="M0 0c0 11.046-8.954 20-20 20s-20-8.954-20-20 8.954-20 20-20S0-11.046 0 0" data-original="#ffffff" style="fill-opacity:1;fill-rule:nonzero;stroke:none" transform="matrix(1.33333 0 0 -1.33333 309.333 396)"/><path fill="#fff" d="M0 0c0 11.046-8.954 20-20 20s-20-8.954-20-20 8.954-20 20-20S0-11.046 0 0" data-original="#ffffff" style="fill-opacity:1;fill-rule:nonzero;stroke:none" transform="matrix(1.33333 0 0 -1.33333 309.333 512)"/><path fill="#fff" d="M0 0c-11.046 0-20-8.954-20-20s8.954-20 20-20 20 8.954 20 20S11.046 0 0 0" data-original="#ffffff" style="fill-opacity:1;fill-rule:nonzero;stroke:none" transform="matrix(1.33333 0 0 -1.33333 282.667 253.333)"/><path fill="#fff" d="M0 0c0 11.046-8.954 20-20 20s-20-8.954-20-20 8.954-20 20-20S0-11.046 0 0" data-original="#ffffff" style="fill-opacity:1;fill-rule:nonzero;stroke:none" transform="matrix(1.33333 0 0 -1.33333 309.333 396)"/><path fill="#fff" d="M0 0c0 11.046-8.954 20-20 20s-20-8.954-20-20 8.954-20 20-20S0-11.046 0 0" data-original="#ffffff" style="fill-opacity:1;fill-rule:nonzero;stroke:none" transform="matrix(1.33333 0 0 -1.33333 309.333 512)"/><path fill="#fff" d="M0 0h-28.364c-4.287 0-8.086 1.673-9.411 5.732l-8.904 27.46C-48.16 37.731-52.125 40-56.09 40s-7.93-2.269-9.411-6.808l-8.904-27.46C-75.729 1.673-79.529 0-83.816 0h-28.323c-9.587 0-13.572-13.289-5.817-18.898l22.821-16.862a9.83 9.83 0 0 0 3.594-11.015l-8.903-27.284c-2.962-9.077 7.472-16.625 15.228-11.015l23.31 16.867a9.9 9.9 0 0 0 5.816 1.881 9.9 9.9 0 0 0 5.817-1.881l23.31-16.867c7.755-5.61 18.19 1.938 15.227 11.015l-8.903 27.284a9.83 9.83 0 0 0 3.595 11.015l22.86 16.862C13.572-13.289 9.586 0 0 0" data-original="#ffffff" style="fill-opacity:1;fill-rule:nonzero;stroke:none" transform="matrix(1.33333 0 0 -1.33333 529.453 422.667)"/></mask><g mask="url(#a)"><g clip-path="url(#b)" transform="matrix(1.33333 0 0 -1.33333 0 682.667)"><path fill="none" stroke="#000" stroke-linecap="round" stroke-linejoin="round" stroke-miterlimit="10" stroke-width="40" d="M0 0c0-33.137-26.863-60-60-60h-352c-33.137 0-60 26.863-60 60v312c0 33.137 26.863 60 60 60h352c33.137 0 60-26.863 60-60V100" data-original="#000000" style="stroke-width:40;stroke-linecap:round;stroke-linejoin:round;stroke-miterlimit:10;stroke-dasharray:none;stroke-opacity:1" transform="translate(492 80)"/><path d="M0 0c-11.046 0-20-8.954-20-20s8.954-20 20-20 20 8.954 20 20S11.046 0 0 0" data-original="#000000" style="fill-opacity:1;fill-rule:nonzero;stroke:none" transform="translate(125 322)"/><path d="M0 0c-11.046 0-20-8.954-20-20s8.954-20 20-20 20 8.954 20 20S11.046 0 0 0" data-original="#000000" style="fill-opacity:1;fill-rule:nonzero;stroke:none" transform="translate(212 322)"/><path d="M0 0c-11.046 0-20-8.954-20-20s8.954-20 20-20 20 8.954 20 20S11.046 0 0 0" data-original="#000000" style="fill-opacity:1;fill-rule:nonzero;stroke:none" transform="translate(299 322)"/><path d="M0 0c-11.046 0-20-8.954-20-20s8.954-20 20-20 20 8.954 20 20S11.046 0 0 0" data-original="#000000" style="fill-opacity:1;fill-rule:nonzero;stroke:none" transform="translate(386 322)"/><path d="M0 0c0 11.046-8.954 20-20 20s-20-8.954-20-20 8.954-20 20-20S0-11.046 0 0" data-original="#000000" style="fill-opacity:1;fill-rule:nonzero;stroke:none" transform="translate(145 215)"/><path d="M0 0c0 11.046-8.954 20-20 20s-20-8.954-20-20 8.954-20 20-20S0-11.046 0 0" data-original="#000000" style="fill-opacity:1;fill-rule:nonzero;stroke:none" transform="translate(145 128)"/><path d="M0 0c0 11.046-8.954 20-20 20s-20-8.954-20-20 8.954-20 20-20S0-11.046 0 0" data-original="#000000" style="fill-opacity:1;fill-rule:nonzero;stroke:none" transform="translate(232 215)"/><path d="M0 0c0 11.046-8.954 20-20 20s-20-8.954-20-20 8.954-20 20-20S0-11.046 0 0" data-original="#000000" style="fill-opacity:1;fill-rule:nonzero;stroke:none" transform="translate(232 128)"/><path d="M0 0c-11.046 0-20-8.954-20-20s8.954-20 20-20 20 8.954 20 20S11.046 0 0 0" data-original="#000000" style="fill-opacity:1;fill-rule:nonzero;stroke:none" transform="translate(212 322)"/><path d="M0 0c0 11.046-8.954 20-20 20s-20-8.954-20-20 8.954-20 20-20S0-11.046 0 0" data-original="#000000" style="fill-opacity:1;fill-rule:nonzero;stroke:none" transform="translate(232 215)"/><path d="M0 0c0 11.046-8.954 20-20 20s-20-8.954-20-20 8.954-20 20-20S0-11.046 0 0" data-original="#000000" style="fill-opacity:1;fill-rule:nonzero;stroke:none" transform="translate(232 128)"/><path fill="none" stroke="#000" stroke-linecap="round" stroke-linejoin="round" stroke-miterlimit="10" stroke-width="40" d="M0 0v-80" data-original="#000000" style="stroke-width:40;stroke-linecap:round;stroke-linejoin:round;stroke-miterlimit:10;stroke-dasharray:none;stroke-opacity:1" transform="translate(125 492)"/><path fill="none" stroke="#000" stroke-linecap="round" stroke-linejoin="round" stroke-miterlimit="10" stroke-width="40" d="M0 0v80" data-original="#000000" style="stroke-width:40;stroke-linecap:round;stroke-linejoin:round;stroke-miterlimit:10;stroke-dasharray:none;stroke-opacity:1" transform="translate(386 412)"/><path fill="none" stroke="#000" stroke-linecap="round" stroke-linejoin="round" stroke-miterlimit="10" stroke-width="40" d="M0 0v-80" data-original="#000000" style="stroke-width:40;stroke-linecap:round;stroke-linejoin:round;stroke-miterlimit:10;stroke-dasharray:none;stroke-opacity:1" transform="translate(255 492)"/><path d="M0 0h-28.364c-4.287 0-8.086 1.673-9.411 5.732l-8.904 27.46C-48.16 37.731-52.125 40-56.09 40s-7.93-2.269-9.411-6.808l-8.904-27.46C-75.729 1.673-79.529 0-83.816 0h-28.323c-9.587 0-13.572-13.289-5.817-18.898l22.821-16.862a9.83 9.83 0 0 0 3.594-11.015l-8.903-27.284c-2.962-9.077 7.472-16.625 15.228-11.015l23.31 16.867a9.9 9.9 0 0 0 5.816 1.881 9.9 9.9 0 0 0 5.817-1.881l23.31-16.867c7.755-5.61 18.19 1.938 15.227 11.015l-8.903 27.284a9.83 9.83 0 0 0 3.595 11.015l22.86 16.862C13.572-13.289 9.586 0 0 0" data-original="#000000" style="fill-opacity:1;fill-rule:nonzero;stroke:none" transform="translate(397.09 195)"/></g></g></svg>