<svg xmlns="http://www.w3.org/2000/svg" version="1.1" xmlns:xlink="http://www.w3.org/1999/xlink" width="512" height="512" x="0" y="0" viewBox="0 0 512 512" style="enable-background:new 0 0 512 512" xml:space="preserve" class="hovered-paths"><g><path fill="#7fd161" d="M7.739 50.681c-1.782-11.199 6.666-21.426 18-21.791 39.076-1.259 125.441 2.255 184.792 51.278 22.691 18.743 32.581 40.433 36.182 59.972 10.317 55.971-31.06 106.086-87.99 106.526-19.868.154-43.035-5.461-65.726-24.204-59.35-49.023-79.113-133.17-85.258-171.781z" opacity="1" data-original="#7fd161"></path><path fill="#51bf26" d="M246.713 140.14c-3.602-19.539-13.491-41.229-36.182-59.972C151.18 31.145 64.815 27.631 25.739 28.89c-11.334.365-19.782 10.592-18 21.791.403 2.533.865 5.263 1.393 8.165 42.316-.293 120.345 6.11 175.253 51.463 22.691 18.743 32.581 40.433 36.182 59.972 3.943 21.392.335 41.929-8.808 59.164 26.721-19.459 41.616-53.161 34.954-89.305z" opacity="1" data-original="#51bf26"></path><path fill="#7fd161" d="M504.041 114.839c2.256-9.063-3.95-18.053-13.224-19.156-31.973-3.803-103.086-7.043-155.258 28.973-19.947 13.77-29.599 30.866-33.939 46.642-12.433 45.193 17.965 89.246 64.644 93.643 16.291 1.535 35.698-1.43 55.645-15.2 52.172-36.015 74.353-103.657 82.132-134.902z" opacity="1" data-original="#7fd161"></path><path fill="#51bf26" d="M490.817 95.683a317.186 317.186 0 0 0-15.361-1.443c-9.049 33.324-31.604 94.825-80.483 128.567-19.947 13.77-39.354 16.734-55.645 15.2-11.344-1.069-21.727-4.48-30.767-9.68 11.433 19.888 32.123 34.205 57.702 36.615 16.291 1.535 35.698-1.43 55.645-15.2 52.173-36.016 74.353-103.658 82.132-134.903 2.257-9.062-3.949-18.053-13.223-19.156z" opacity="1" data-original="#51bf26"></path><path fill="#db8759" d="m432.495 470.147-.238-.271c-13.424-15.17-31.807-21.321-49.253-18.457-3.06-5.653-6.737-11-11.067-15.893-11.944-13.496-26.889-21.53-42.407-24.112-16.743-22.186-41.643-36.273-69.469-36.273s-52.726 14.087-69.469 36.273c-15.518 2.582-30.463 10.616-42.407 24.112-4.33 4.893-8.006 10.24-11.067 15.893-17.446-2.864-35.828 3.287-49.253 18.457l-.238.271c-3.353 3.832-4.766 8.553-4.648 13.155h354.164c.119-4.602-1.295-9.322-4.648-13.155z" opacity="1" data-original="#db8759"></path><path fill="#c66e37" d="m432.495 470.147-.238-.271c-13.424-15.169-31.806-21.321-49.253-18.457-3.06-5.653-6.737-11-11.067-15.893-11.944-13.496-26.889-21.53-42.407-24.112-16.743-22.186-41.643-36.273-69.469-36.273-6.531 0-12.901.776-19.042 2.251 18.355 4.407 34.665 15.056 47.126 29.878 2.215 2.635 5.266 4.413 8.606 5.246 13.597 3.392 26.526 11.06 37.103 23.011a82.87 82.87 0 0 1 6.369 8.184c2.983 4.367 7.887 7.015 13.176 7.027 14.761.034 29.512 6.413 40.775 19.139l.238.271c3.353 3.833 4.767 8.553 4.648 13.155h38.083c.119-4.603-1.295-9.323-4.648-13.156z" opacity="1" data-original="#c66e37"></path><path d="M430.09 233.873a7.501 7.501 0 0 0 9.869 11.296c43.77-38.24 63.497-96.934 71.36-128.518a23.021 23.021 0 0 0-19.617-28.414c-53.681-6.385-115.711-.605-160.405 30.248-40.705 28.1-50.049 77.441-29.183 113.671a226.512 226.512 0 0 0-38.915 72.933c-5.272-30.081-15.427-58.921-30.038-85.432.183-.218.371-.431.553-.65 33.59-40.666 29.89-104.73-18.407-144.622-25.031-20.676-57.099-35.596-95.31-44.345a7.5 7.5 0 0 0-3.347 14.622c35.912 8.222 65.892 22.113 89.105 41.288 39.988 33.028 44.766 85.053 19.236 119.855a272.682 272.682 0 0 0-29.178-38.3c-28.788-31.562-79.727-64.282-81.882-65.66a7.5 7.5 0 0 0-8.08 12.638c.511.327 51.412 33.017 78.88 63.13a257.704 257.704 0 0 1 29.825 39.843c-29.519 27.129-78.26 31.041-116.782-.778C39.555 168.592 20.595 83.749 15.147 49.503c-1.065-6.682 3.938-12.894 10.833-13.117 13.082-.423 33.554-.34 56.799 2.443 4.105.487 7.846-2.442 8.339-6.555a7.5 7.5 0 0 0-6.556-8.338c-24.178-2.895-45.466-2.98-59.065-2.542C9.682 21.903-2.161 36.188.332 51.86c3.231 20.307 9.87 51.304 23.145 83.654 16.168 39.401 37.951 70.6 64.743 92.73 42.774 35.33 98.32 32.965 133.907 2.54 19.791 37.397 30.324 79.505 30.297 122.99l-.009 14.2c-25.345 2.192-48.949 15.221-66 36.591-16.709 3.455-31.817 12.397-43.847 25.99a91.788 91.788 0 0 0-9.48 12.842c-18.83-1.367-37.515 6.451-50.834 21.502l-.271.307a26.199 26.199 0 0 0-5.607 10.594H38.173c-4.143 0-7.5 3.358-7.5 7.5s3.357 7.5 7.5 7.5H472.64c4.143 0 7.5-3.358 7.5-7.5s-3.357-7.5-7.5-7.5h-28.893a26.236 26.236 0 0 0-5.609-10.596l-.265-.3c-13.322-15.056-32.016-22.87-50.838-21.507a91.467 91.467 0 0 0-9.482-12.842c-12.028-13.593-27.135-22.535-43.845-25.99-17.085-21.414-40.751-34.45-66.154-36.603 1.443-45.015 16.709-87.912 43.646-123.09 23.952 27.414 63.338 35.201 97.088 20.928a7.498 7.498 0 0 0 3.986-9.829 7.5 7.5 0 0 0-9.828-3.986c-28.663 12.121-62.126 5.095-81.527-18.891.635-.716 1.265-1.436 1.91-2.144 24.122-26.446 53.45-47.775 87.168-63.395a7.5 7.5 0 0 0 3.653-9.958 7.5 7.5 0 0 0-9.958-3.653c-35.133 16.275-65.757 38.468-91.063 65.954-13.531-28.768-5.453-66.535 27.19-89.07 50.804-35.073 121.901-31.053 150.112-27.698 2.316.276 4.322 1.485 5.648 3.406s1.747 4.227 1.184 6.49c-17.329 69.604-49.211 105.591-66.673 120.847zm-106.546 182.06a7.5 7.5 0 0 0 4.755 2.881c14.448 2.404 27.595 9.902 38.022 21.684 3.831 4.329 7.226 9.205 10.088 14.493a7.496 7.496 0 0 0 7.811 3.83c15.67-2.573 31.132 3.269 42.425 16.031l.206.233c.206.236.379.477.557.717H92.716c.178-.239.349-.479.555-.714l.212-.241c11.29-12.756 26.749-18.597 42.421-16.026a7.51 7.51 0 0 0 7.811-3.83c2.862-5.287 6.257-10.164 10.087-14.493 10.427-11.782 23.575-19.28 38.022-21.684a7.497 7.497 0 0 0 4.756-2.881c15.966-21.157 39.104-33.291 63.482-33.291s47.516 12.134 63.482 33.291z" fill="#000000" opacity="1" data-original="#000000" class="hovered-path"></path></g></svg>