<svg xmlns="http://www.w3.org/2000/svg" version="1.1" xmlns:xlink="http://www.w3.org/1999/xlink" width="512" height="512" x="0" y="0" viewBox="0 0 800 800" style="enable-background:new 0 0 512 512" xml:space="preserve" class=""><g><path fill="#8e93a6" d="M66.7 207c0-66.2 0-99.2 22-119.8s57.3-20.6 128-20.6 106.1 0 128 20.6c22 20.6 22 53.6 22 119.8v386c0 66.2 0 99.2-22 119.8s-57.3 20.6-128 20.6-106.1 0-128-20.6-22-53.6-22-119.8z" opacity="1" data-original="#8e93a6"></path><g fill="#1c274c"><path d="M433.3 513.3c0-69.1 0-103.7 22-125.2s57.3-21.5 128-21.5 106.1 0 128 21.5c22 21.5 22 56 22 125.2v73.3c0 69.1 0 103.7-22 125.2s-57.3 21.5-128 21.5-106.1 0-128-21.5c-22-21.5-22-56-22-125.2zM433.3 183.3c0-36.2 0-54.4 5.7-68.7 7.6-19.1 22.2-34.2 40.6-42.1 13.8-5.9 31.3-5.9 66.2-5.9h75c34.9 0 52.4 0 66.2 5.9 18.4 7.9 33 23 40.6 42.1 5.7 14.3 5.7 32.4 5.7 68.7s0 54.4-5.7 68.7c-7.6 19.1-22.2 34.2-40.6 42.1-13.8 5.9-31.3 5.9-66.2 5.9h-75c-34.9 0-52.4 0-66.2-5.9-18.4-7.9-33-23-40.6-42.1-5.7-14.3-5.7-32.4-5.7-68.7z" fill="#1c274c" opacity="1" data-original="#1c274c" class=""></path></g></g></svg>