<svg xmlns="http://www.w3.org/2000/svg" version="1.1" xmlns:xlink="http://www.w3.org/1999/xlink" width="512" height="512" x="0" y="0" viewBox="0 0 512 512" style="enable-background:new 0 0 512 512" xml:space="preserve" class=""><g><path fill-rule="evenodd" d="M430.762 82.431c-47.571-35.584-115.1-30.7-157.072 11.323L256 111.463l-17.686-17.709c-41.984-42.035-109.5-46.907-157.078-11.323a120.294 120.294 0 0 0-36.091 148.913 491.743 491.743 0 0 0 86.847 124.374A500.728 500.728 0 0 0 252.13 448.2a8.06 8.06 0 0 0 3.872.993 7.961 7.961 0 0 0 3.858-.993 500.624 500.624 0 0 0 120.152-92.477 491.691 491.691 0 0 0 86.84-124.374 120.294 120.294 0 0 0-36.09-148.913zM482.133 238.8C434.212 337.058 354 418.855 256 469.526 158 418.855 77.792 337.058 29.871 238.8A137.28 137.28 0 0 1 250.344 81.745a8 8 0 0 0 11.316 0c47.914-47.978 124.981-53.536 179.282-12.938A137.336 137.336 0 0 1 482.133 238.8zM450.522 56a153.334 153.334 0 0 1 45.992 189.818c-50.029 102.572-134.162 187.747-236.9 239.833a8.009 8.009 0 0 1-7.237 0C149.645 433.564 65.512 348.389 15.484 245.817A153.23 153.23 0 0 1 256 65.05 153.221 153.221 0 0 1 450.522 56zm-49.1 65.673a70.319 70.319 0 0 0-20.946-10.773 8 8 0 1 1 4.83-15.252 87.143 87.143 0 0 1 51.885 121.231 8 8 0 1 1-14.373-7.008 71.271 71.271 0 0 0-21.396-88.199z" fill="#000000" opacity="1" data-original="#000000" class=""></path></g></svg>