<svg xmlns="http://www.w3.org/2000/svg" version="1.1" xmlns:xlink="http://www.w3.org/1999/xlink" width="512" height="512" x="0" y="0" viewBox="0 0 512 512" style="enable-background:new 0 0 512 512" xml:space="preserve" class=""><g><path fill="#f6dccd" fill-rule="evenodd" d="m43.511 388.474 59.889-34.698c11.24-6.512 22.669-11.129 35.023-7.121 13.774 4.467 36.266 14.059 59.204 18.195 8.514 2.76 13.822 11.286 11.506 19.93-2.317 8.646-9.622 13.103-19.93 11.509l8.018 1.283c9.188 1.47 17.627.212 25.669-4.471l57.581-33.538c44.759-26.068 51.333 14.036 36.451 23.198l-104.494 64.343c-9.611 5.916-20.127 7.297-31.029 4.375l-75.793-20.309-28.069 16.206c-5.397 3.116-12.34 1.256-15.456-4.141l-22.698-39.314c-3.112-5.391-1.259-12.326 4.128-15.447z" clip-rule="evenodd" opacity="1" data-original="#f6dccd"></path><path fill="#f1cbbc" fill-rule="evenodd" d="M207.767 388.366c-3.201 6.255-9.795 9.279-18.564 7.923-12.415-3.283-24.816-6.649-37.221-9.973a6.229 6.229 0 0 1 3.224-12.032zM43.51 388.474l59.89-34.698c11.24-6.512 22.669-11.129 35.023-7.121 7.369 2.39 17.234 6.246 28.327 9.95L50.736 423.586l-11.353-19.664c-3.113-5.392-1.26-12.327 4.127-15.448z" clip-rule="evenodd" opacity="1" data-original="#f1cbbc"></path><path fill="#d1d1d6" fill-rule="evenodd" d="m50.465 371.215 47.497 83.924c2.297 4.058.855 9.257-3.203 11.554l-16.156 9.143c-4.058 2.297-9.257.855-11.553-3.202L19.553 388.71c-2.296-4.058-.856-9.257 3.203-11.554l16.156-9.143c4.057-2.297 9.256-.856 11.553 3.202z" clip-rule="evenodd" opacity="1" data-original="#d1d1d6"></path><path fill="#b1b1b5" fill-rule="evenodd" d="m75.446 428.876 8.407 14.854 8.313 14.689c2.292 4.049.861 9.236-3.177 11.539l5.771-3.266c4.058-2.297 5.499-7.496 3.203-11.554L89.621 440.4l-16.749-29.595-16.768-29.627-5.639-9.964c-1.989-3.515-6.157-5.066-9.874-3.925l9.763 17.25 16.749 29.594 8.341 14.739z" clip-rule="evenodd" opacity="1" data-original="#b1b1b5"></path><path fill="#fe646f" fill-rule="evenodd" d="M114.726 196.134H74.472a5.01 5.01 0 0 0-5 5v113.51h50.253v-113.51a5.007 5.007 0 0 0-4.999-5z" clip-rule="evenodd" opacity="1" data-original="#fe646f"></path><path fill="#fd4755" fill-rule="evenodd" d="M114.726 196.134h-10c2.754 0 5 2.246 5 5v113.51h10v-113.51c0-2.755-2.246-5-5-5z" clip-rule="evenodd" opacity="1" data-original="#fd4755"></path><path fill="#6cf5c2" fill-rule="evenodd" d="M198.233 153.589H157.98a5.01 5.01 0 0 0-5 5v156.055h50.253V158.588a5.01 5.01 0 0 0-5-4.999z" clip-rule="evenodd" opacity="1" data-original="#6cf5c2" class=""></path><path fill="#00e499" fill-rule="evenodd" d="M198.233 153.589h-10c2.754 0 5 2.246 5 5v156.055h10V158.588a5.01 5.01 0 0 0-5-4.999z" clip-rule="evenodd" opacity="1" data-original="#00e499"></path><path fill="#8ac9fe" fill-rule="evenodd" d="m258.999 42.603-47.2 53.5c-1.895 2.146-.313 5.435 2.614 5.435h21.983v116.96c0 32.039.09 64.098.09 96.145h50.254c0-32.047.089-64.105.089-96.145v-116.96h21.983c2.927 0 4.509-3.288 2.614-5.435l-47.201-53.5c-1.37-1.551-3.858-1.55-5.226 0z" clip-rule="evenodd" opacity="1" data-original="#8ac9fe" class=""></path><path fill="#60b7ff" fill-rule="evenodd" d="m258.999 42.603-2.387 2.706 44.813 50.794c1.895 2.147.313 5.435-2.614 5.435h10c2.927 0 4.509-3.288 2.614-5.435l-47.201-53.5c-1.369-1.551-3.857-1.55-5.225 0zm17.739 272.039c0-32.047.089-64.105.089-96.145v-116.96h10v116.96c0 32.039-.089 64.098-.089 96.145z" clip-rule="evenodd" opacity="1" data-original="#60b7ff" class=""></path><path fill="#6cf5c2" fill-rule="evenodd" d="M475.469 124.961c-31.835 0-57.947 24.49-60.531 55.658a61.17 61.17 0 0 0 9.965.818c31.835 0 57.947-24.49 60.531-55.658a61.18 61.18 0 0 0-9.965-.818z" clip-rule="evenodd" opacity="1" data-original="#6cf5c2" class=""></path><path fill="#00e499" fill-rule="evenodd" d="M416.556 170.864a60.494 60.494 0 0 0-1.618 9.755 61.17 61.17 0 0 0 9.965.818c31.835 0 57.947-24.49 60.531-55.658a61.257 61.257 0 0 0-1.619-.245c-6.623 26.374-30.485 45.903-58.913 45.903a61.11 61.11 0 0 1-8.346-.573z" clip-rule="evenodd" opacity="1" data-original="#00e499"></path><path fill="#6cf5c2" fill-rule="evenodd" d="M354.406 124.961c31.835 0 57.947 24.49 60.531 55.658a61.18 61.18 0 0 1-9.965.818c-31.835 0-57.947-24.49-60.531-55.658a61.18 61.18 0 0 1 9.965-.818z" clip-rule="evenodd" opacity="1" data-original="#6cf5c2" class=""></path><path fill="#00e499" fill-rule="evenodd" d="M413.319 170.864a60.494 60.494 0 0 1 1.618 9.755 61.18 61.18 0 0 1-9.965.818c-31.835 0-57.947-24.49-60.531-55.658.537-.089 1.077-.17 1.619-.245 6.623 26.374 30.485 45.903 58.913 45.903a61.12 61.12 0 0 0 8.346-.573z" clip-rule="evenodd" opacity="1" data-original="#00e499"></path><path fill="#6cf5c2" fill-rule="evenodd" d="M421.141 40.195c21.692 24.156 18.606 58.821-6.204 79.685a62.934 62.934 0 0 1-7.488-7.065c-21.692-24.156-18.606-58.822 6.204-79.685a62.853 62.853 0 0 1 7.488 7.065z" clip-rule="evenodd" opacity="1" data-original="#6cf5c2" class=""></path><path fill="#00e499" fill-rule="evenodd" d="M435.411 71.979c1.664 17.426-5.388 35.215-20.474 47.901a62.934 62.934 0 0 1-7.488-7.065c-11.025-12.278-15.646-27.27-14.27-41.785 1.073 11.234 5.767 22.317 14.27 31.785a62.934 62.934 0 0 0 7.488 7.065c12.201-10.26 19.143-23.857 20.474-37.901z" clip-rule="evenodd" opacity="1" data-original="#00e499"></path><path fill="#ffe177" fill-rule="evenodd" d="M368.302 245.3c-8.162 0-14.84-6.678-14.84-14.839v-10.894c0-8.162 6.678-14.839 14.84-14.839h93.271c8.161 0 14.839 6.677 14.839 14.839v10.894c0 8.162-6.678 14.839-14.839 14.839 8.161 0 14.839 6.678 14.839 14.839v10.895c0 8.162-6.678 14.839-14.839 14.839 8.161 0 14.839 6.678 14.839 14.839v10.895c0 8.162-6.678 14.839-14.839 14.839 8.161 0 14.839 6.678 14.839 14.839v10.895c0 8.162-6.678 14.839-14.839 14.839 8.161 0 14.839 6.677 14.839 14.839v10.895c0 8.162-6.678 14.839-14.839 14.839h-93.271c-8.162 0-14.84-6.678-14.84-14.839v-10.895c0-8.162 6.678-14.839 14.84-14.839-8.162 0-14.84-6.677-14.84-14.839v-10.895c0-8.162 6.678-14.839 14.84-14.839-8.162 0-14.84-6.677-14.84-14.839v-10.895c0-8.162 6.678-14.839 14.84-14.839-8.162 0-14.84-6.677-14.84-14.839V260.14c.001-8.162 6.678-14.84 14.84-14.84z" clip-rule="evenodd" opacity="1" data-original="#ffe177"></path><path fill="#ffd064" fill-rule="evenodd" d="M451.573 204.727h10c8.161 0 14.839 6.677 14.839 14.839v10.894c0 8.162-6.678 14.839-14.839 14.839 8.161 0 14.839 6.678 14.839 14.839v10.895c0 8.162-6.678 14.839-14.839 14.839 8.161 0 14.839 6.678 14.839 14.839v10.895c0 8.162-6.678 14.839-14.839 14.839 8.161 0 14.839 6.678 14.839 14.839v10.895c0 8.162-6.678 14.839-14.839 14.839 8.161 0 14.839 6.677 14.839 14.839v10.895c0 8.162-6.678 14.839-14.839 14.839h-10c8.161 0 14.839-6.678 14.839-14.839v-10.895c0-8.162-6.678-14.839-14.839-14.839 8.161 0 14.839-6.677 14.839-14.839v-10.895c0-8.162-6.678-14.839-14.839-14.839 8.161 0 14.839-6.677 14.839-14.839v-10.895c0-8.162-6.678-14.839-14.839-14.839 8.161 0 14.839-6.677 14.839-14.839V260.14c0-8.162-6.678-14.839-14.839-14.839 8.161 0 14.839-6.678 14.839-14.839v-10.894c0-8.163-6.678-14.841-14.839-14.841z" clip-rule="evenodd" opacity="1" data-original="#ffd064"></path><path fill="#ffc338" fill-rule="evenodd" d="M461.573 245.3h-93.271c-8.162 0-14.84 6.678-14.84 14.839v10.895c0 8.162 6.678 14.839 14.84 14.839h93.271c8.161 0 14.839-6.677 14.839-14.839V260.14c0-8.162-6.677-14.84-14.839-14.84z" clip-rule="evenodd" opacity="1" data-original="#ffc338"></path><path fill="#f5b829" fill-rule="evenodd" d="M461.573 245.3h-10c8.161 0 14.839 6.678 14.839 14.839v10.895c0 8.162-6.678 14.839-14.839 14.839h10c8.161 0 14.839-6.677 14.839-14.839V260.14c0-8.162-6.677-14.84-14.839-14.84z" clip-rule="evenodd" opacity="1" data-original="#f5b829"></path><path fill="#ffc338" fill-rule="evenodd" d="M461.573 326.447h-93.271c-8.162 0-14.84 6.678-14.84 14.839v10.895c0 8.162 6.678 14.839 14.84 14.839h93.271c8.161 0 14.839-6.677 14.839-14.839v-10.895c0-8.162-6.677-14.839-14.839-14.839z" clip-rule="evenodd" opacity="1" data-original="#ffc338"></path><path fill="#f5b829" fill-rule="evenodd" d="M461.573 326.447h-10c8.161 0 14.839 6.678 14.839 14.839v10.895c0 8.162-6.678 14.839-14.839 14.839h10c8.161 0 14.839-6.677 14.839-14.839v-10.895c0-8.162-6.677-14.839-14.839-14.839z" clip-rule="evenodd" opacity="1" data-original="#f5b829"></path><circle cx="434.53" cy="417.389" r="61.475" fill="#ffc338" fill-rule="evenodd" clip-rule="evenodd" transform="rotate(-13.34 433.62 417.303)" opacity="1" data-original="#ffc338"></circle><path fill="#f5b829" fill-rule="evenodd" d="M434.53 355.914c33.952 0 61.475 27.523 61.475 61.475s-27.523 61.475-61.475 61.475c-1.773 0-3.528-.08-5.263-.227 31.487-2.671 56.212-29.069 56.212-61.248s-24.725-58.578-56.212-61.248a62.3 62.3 0 0 1 5.263-.227z" clip-rule="evenodd" opacity="1" data-original="#f5b829"></path><path fill="#242222" fill-rule="evenodd" d="M77.468 204.137h34.252v102.506H77.468zm83.515-42.541h34.247v145.047h-34.247zm83.457 46.49c-.028-35.509-.052-71.031-.052-106.55 0-4.41-3.577-8.002-7.997-8.002h-11.664l36.883-41.797 36.878 41.797H286.83c-4.42 0-8.002 3.591-8.002 8.002 0 35.518-.028 71.041-.047 106.55-.024 32.849-.042 65.708-.042 98.557h-34.257c.001-32.849-.023-65.708-.042-98.557zm85.218 98.557h-34.92c0-32.849.023-65.699.042-98.548s.038-65.699.047-98.562h13.984c4.509 0 8.609-2.617 10.44-6.688 1.826-4.071 1.13-8.68-1.831-12.031l-47.2-53.499a11.47 11.47 0 0 0-8.609-3.869 11.472 11.472 0 0 0-8.609 3.869l-47.201 53.499c-2.97 3.351-3.671 7.959-1.831 12.031 1.831 4.071 5.931 6.688 10.44 6.688h13.979c.009 32.863.028 65.713.052 98.562.019 32.849.037 65.699.037 98.548h-17.251V153.594a7.993 7.993 0 0 0-7.997-7.997h-50.251a7.997 7.997 0 0 0-8.002 7.997v153.049h-17.26V196.135a7.993 7.993 0 0 0-7.997-7.997H69.471a7.997 7.997 0 0 0-8.002 7.997v110.508H44.85c-4.42 0-8.002 3.582-8.002 8.002s3.582 8.002 8.002 8.002h284.809a8.002 8.002 0 1 0-.001-16.004zm132.424 124.172c.72 5.912-.885 11.32-4.632 15.65-3.478 4.02-8.802 6.929-14.921 8.289v1.539a7.995 7.995 0 0 1-8.002 8.002 7.994 7.994 0 0 1-7.997-8.002v-1.68c-9.739-2.457-17.143-9.339-19.491-18.747a8.002 8.002 0 1 1 15.528-3.869c1.44 5.799 7.672 7.729 12.572 7.597 4.26-.099 8.458-1.581 10.209-3.596.569-.654 1.059-1.501.852-3.253-.212-1.699-.692-5.681-12.911-7.682-20.499-3.37-24.099-15.067-24.419-21.746-.532-10.76 6.51-19.835 17.66-23.003v-1.831a8 8 0 0 1 15.999 0v1.76c7.178 1.958 13.871 6.792 17.472 15.373 1.708 4.076-.202 8.769-4.283 10.477-4.067 1.713-8.759-.212-10.468-4.279-2.838-6.759-9.889-7.14-13.612-6.288-1.657.367-7.037 1.986-6.787 7.018.061 1.229.24 4.961 11.028 6.731 15.97 2.619 24.79 9.867 26.203 21.54zm-27.554 40.051c29.484 0 53.475-23.991 53.475-53.47 0-29.493-23.991-53.48-53.475-53.48-29.489 0-53.48 23.986-53.48 53.48 0 29.479 23.991 53.47 53.48 53.47zm-73.07-78.11v-10.892c0-3.78 3.074-6.839 6.844-6.839h11.217c-5.549 7.192-9.729 15.481-12.13 24.5-3.338-.439-5.931-3.31-5.931-6.769zm0-51.47c0-3.77 3.074-6.839 6.844-6.839h93.267c3.77 0 6.844 3.069 6.844 6.839v10.901c0 1.417-.461 2.758-1.252 3.888a69.058 69.058 0 0 0-32.633-8.157c-13.857 0-26.758 4.086-37.608 11.108h-28.618c-3.77 0-6.844-3.074-6.844-6.839zm0-40.569c0-3.77 3.074-6.844 6.844-6.844h93.267c3.77 0 6.844 3.074 6.844 6.844v10.887c0 3.78-3.074 6.839-6.844 6.839h-93.267c-3.77 0-6.844-3.059-6.844-6.839zm0-40.573c0-3.779 3.074-6.839 6.844-6.839h93.267c3.77 0 6.844 3.059 6.844 6.839v10.892c0 3.77-3.074 6.839-6.844 6.839h-93.267c-3.77 0-6.844-3.069-6.844-6.839zm0-40.578c0-3.77 3.074-6.839 6.844-6.839h93.267c3.77 0 6.844 3.069 6.844 6.839v10.901c0 3.77-3.074 6.839-6.844 6.839h-93.267c-3.77 0-6.844-3.069-6.844-6.839zm-7.785-86.602h.729c19.609 0 37.067 11.023 46.137 27.3l-15.98-11.617a7.993 7.993 0 0 0-11.179 1.77c-2.603 3.568-1.812 8.566 1.77 11.169l11.941 8.679c-16.422-6-29.253-19.98-33.418-37.301zm47.379-60.079c.739-10.628 5.206-20.668 12.737-28.839.471.489.941.988 1.393 1.497h.005c8.835 9.842 13.222 22.122 12.351 34.581a45.81 45.81 0 0 1-4.608 17.011v-20.63a7.997 7.997 0 0 0-8.002-7.997 8 8 0 0 0-7.997 7.997v21.962c-4.443-7.893-6.509-16.69-5.879-25.582zm75.15 60.079c-4.17 17.321-17.001 31.301-33.423 37.302l11.941-8.679c3.577-2.603 4.368-7.602 1.77-11.169a7.993 7.993 0 0 0-11.179-1.77l-15.98 11.617c9.179-16.48 26.961-27.55 46.871-27.301zm4.1 232.233c14.507 12.737 23.699 31.409 23.699 52.199 0 38.3-31.159 69.469-69.474 69.469-38.309 0-69.478-31.169-69.478-69.469 0-.683.028-1.351.052-2.033-11.08-1.558-19.642-11.099-19.642-22.607v-10.892a22.766 22.766 0 0 1 5.488-14.841 22.76 22.76 0 0 1-5.488-14.836v-10.901c0-5.663 2.071-10.84 5.488-14.841a22.754 22.754 0 0 1-5.488-14.841v-10.887a22.746 22.746 0 0 1 5.488-14.841 22.764 22.764 0 0 1-5.488-14.841v-10.892a22.742 22.742 0 0 1 5.488-14.836c-3.417-4.001-5.488-9.183-5.488-14.841v-10.901c0-12.591 10.251-22.838 22.842-22.838h38.629v-7.334c-.649.019-1.313.043-1.963.043-17.359 0-33.927-6.481-46.669-18.263-12.661-11.72-20.409-27.601-21.83-44.73a7.989 7.989 0 0 1 6.67-8.557 69.432 69.432 0 0 1 11.263-.923c17.359 0 33.937 6.491 46.669 18.272a69.942 69.942 0 0 1 5.86 6.147v-17.82a69.902 69.902 0 0 1-5.432-5.399c-11.772-13.099-17.59-29.578-16.408-46.4 1.2-17.18 9.508-33.07 23.407-44.758a8.022 8.022 0 0 1 10.153-.122 70.294 70.294 0 0 1 8.44 7.969c11.758 13.095 17.59 29.573 16.408 46.391-1.12 15.961-8.388 30.821-20.569 42.221v17.919c1.831-2.146 3.77-4.208 5.869-6.147 12.732-11.781 29.31-18.272 46.674-18.272 3.747 0 7.536.311 11.259.923a7.981 7.981 0 0 1 6.665 8.557c-1.417 17.128-9.169 33.009-21.826 44.73-12.741 11.781-29.31 18.263-46.673 18.263-.65 0-1.308-.024-1.967-.043v7.334h38.639c12.591 0 22.842 10.247 22.842 22.838v10.901c0 5.658-2.071 10.84-5.493 14.841a22.72 22.72 0 0 1 5.493 14.836v10.892a22.743 22.743 0 0 1-5.493 14.841 22.724 22.724 0 0 1 5.493 14.841v10.887a22.735 22.735 0 0 1-5.493 14.841c3.422 4.001 5.493 9.178 5.493 14.841v10.901c0 4.725-1.501 9.248-4.109 13.009zM44.007 387.526c.471 3.201-1.737 6.166-4.928 6.632s-6.157-1.742-6.627-4.933a5.856 5.856 0 0 1 4.938-6.632c3.191-.466 6.161 1.742 6.617 4.933zm271.084-11.089-105.853 65.167c-7.701 4.749-16.168 5.931-25.158 3.521l-76.769-20.569a7.999 7.999 0 0 0-6.072.8l-9.207 5.309-26.081-46.08 41.058-23.77c12.53-7.258 20.931-9.15 29.004-6.528 3.497 1.13 7.569 2.598 12.266 4.307 13.612 4.914 30.5 11.023 48.133 14.271 4.556 1.69 7.107 6.072 5.959 10.36-.461 1.713-1.859 6.863-10.331 5.931-8.43-1.742-16.498-4.038-25.027-6.481-4.114-1.167-8.35-2.377-12.732-3.558a8.01 8.01 0 0 0-9.8 5.663 8.007 8.007 0 0 0 5.662 9.8 705.828 705.828 0 0 1 12.468 3.488c8.957 2.551 17.42 4.971 26.58 6.839.052.009.108.019.16.033l.16.028 7.258 1.181c11.522 1.85 21.751.037 31.291-5.512l58.328-33.97c15.043-8.769 26.82-10.172 30.722-3.652 2.748 4.582 1.191 11.44-2.019 13.422zm-225.743 83.17c.264-.151.372-.541.221-.8L41.46 373.796a.623.623 0 0 0-.358-.273c-.061-.019-.122-.019-.184-.019a.558.558 0 0 0-.259.061l-16.371 9.268a.624.624 0 0 0-.221.8l48.114 85.011a.54.54 0 0 0 .358.259.544.544 0 0 0 .442-.038zM278.33 352.836l-58.318 33.97c-.791.457-1.581.88-2.382 1.257.071-.226.132-.466.198-.697 3.37-12.581-4.057-25.699-16.917-29.87a7.44 7.44 0 0 0-1.04-.264c-16.531-2.975-32.953-8.919-46.151-13.688-4.641-1.68-9.018-3.257-12.77-4.481-15.989-5.192-30.18 1.083-41.962 7.903l-40.917 23.69-2.692-4.74c-2.17-3.85-5.728-6.623-9.997-7.809-4.279-1.182-8.75-.64-12.601 1.534l-16.37 9.263c-7.959 4.509-10.769 14.652-6.26 22.612l48.109 85.006a16.447 16.447 0 0 0 10.012 7.804c1.469.409 2.979.607 4.467.607 2.824 0 5.611-.72 8.124-2.151l16.37-9.258a16.465 16.465 0 0 0 7.8-10.012 16.497 16.497 0 0 0-1.539-12.6l-3.582-6.317 6.458-3.732 73.573 19.722c4.368 1.167 8.717 1.751 13.001 1.751 8.656 0 17.025-2.391 24.688-7.103l105.849-65.181c10.892-6.698 14.403-23.511 7.361-35.259-3.391-5.656-17.192-22.526-52.512-1.957z" clip-rule="evenodd" opacity="1" data-original="#242222" class=""></path></g></svg>