<svg xmlns="http://www.w3.org/2000/svg" version="1.1" xmlns:xlink="http://www.w3.org/1999/xlink" width="512" height="512" x="0" y="0" viewBox="0 0 512 512" style="enable-background:new 0 0 512 512" xml:space="preserve" class=""><g><path d="M378.864 96.55c-50.352 0-91.17 40.818-91.17 91.17v84.249c0 13.64 6.755 25.694 17.095 33.025a52.288 52.288 0 0 1 17.394-2.968h36.368v-16.184a65.704 65.704 0 0 0 20.313 3.212 65.704 65.704 0 0 0 20.313-3.212v16.184h36.368c6.099 0 11.95 1.053 17.394 2.968 10.34-7.331 17.096-19.385 17.096-33.025V187.72c-.001-50.351-40.819-91.17-91.171-91.17z" style="" fill="#766e6e" data-original="#766e6e" class=""></path><path d="M338 271.97v-84.25c0-41.626 27.898-76.735 66.017-87.653a91.24 91.24 0 0 0-25.153-3.516c-50.352 0-91.17 40.818-91.17 91.17v84.249c0 13.64 6.755 25.694 17.095 33.025a52.288 52.288 0 0 1 17.394-2.969h29.205C343.17 294.621 338 283.902 338 271.97z" style="" fill="#5b5555" data-original="#5b5555" class=""></path><path d="M378.864 96.55c-50.352 0-91.17 40.818-91.17 91.17v84.249c0 13.64 6.755 25.694 17.095 33.025a52.288 52.288 0 0 1 17.394-2.968h36.368v-16.184a65.704 65.704 0 0 0 20.313 3.212h0a65.704 65.704 0 0 0 20.313-3.212v16.184h36.368c6.099 0 11.95 1.053 17.394 2.968 10.34-7.331 17.096-19.385 17.096-33.025V187.72c-.001-50.351-40.819-91.17-91.171-91.17z" style="stroke-width:15;stroke-linecap:round;stroke-linejoin:round;stroke-miterlimit:10;" fill="none" stroke="#000000" stroke-width="15" stroke-linecap="round" stroke-linejoin="round" stroke-miterlimit="10" data-original="#000000" class=""></path><path d="M435.545 302.026h-36.368v1.537c0 11.218-9.094 20.313-20.313 20.313-11.218 0-20.313-9.094-20.313-20.313v-1.537h-36.368c-28.943 0-52.406 23.463-52.406 52.406v74.573h13.007c24.953 0 47.695 13.915 59.141 35.854 11.446-21.939 34.188-35.854 59.141-35.854h46.483a5.772 5.772 0 0 1 5.772 5.772v33.476h34.631V354.432c-.001-28.943-23.464-52.406-52.407-52.406z" style="" fill="#05e39c" data-original="#05e39c"></path><path d="M358.552 302.245v-.219h-36.368c-28.943 0-52.406 23.463-52.406 52.406v74.573h13.006a66.59 66.59 0 0 1 28.043 6.191v-80.764c0-27.365 20.976-49.817 47.725-52.187z" style="" fill="#0ed290" data-original="#0ed290"></path><path d="M487.951 381v-26.568c0-28.943-23.463-52.406-52.406-52.406h-36.368v1.537c0 11.218-9.094 20.312-20.313 20.312-11.218 0-20.313-9.094-20.313-20.312v-1.537h-36.368c-28.943 0-52.406 23.463-52.406 52.406v74.573h13.006c24.953 0 47.695 13.915 59.141 35.854 11.446-21.939 34.188-35.854 59.141-35.854h46.483a5.772 5.772 0 0 1 5.772 5.772v33.476h34.631V416" style="stroke-width:15;stroke-linecap:round;stroke-linejoin:round;stroke-miterlimit:10;" fill="none" stroke="#000000" stroke-width="15" stroke-linecap="round" stroke-linejoin="round" stroke-miterlimit="10" data-original="#000000" class=""></path><path d="M378.864 289.053a65.704 65.704 0 0 1-20.313-3.212v17.721c0 11.218 9.094 20.313 20.313 20.313s20.313-9.094 20.313-20.313v-17.721a65.674 65.674 0 0 1-20.313 3.212z" style="" fill="#f89580" data-original="#f89580"></path><path d="M378.864 289.053h0a65.704 65.704 0 0 1-20.313-3.212v17.721c0 11.218 9.094 20.313 20.313 20.313s20.313-9.094 20.313-20.313v-17.721a65.674 65.674 0 0 1-20.313 3.212z" style="stroke-width:15;stroke-linecap:round;stroke-linejoin:round;stroke-miterlimit:10;" fill="none" stroke="#000000" stroke-width="15" stroke-linecap="round" stroke-linejoin="round" stroke-miterlimit="10" data-original="#000000" class=""></path><path d="m410.462 166.22-85.332 22.527a16.165 16.165 0 0 0-12.039 15.63v18.902c0 36.326 29.448 65.774 65.774 65.774s65.774-29.448 65.774-65.774v-31.354c0-.474-.012-.946-.036-1.414-.863-17.012-17.671-28.638-34.141-24.291z" style="" fill="#ffcebf" data-original="#ffcebf"></path><path d="M347 223.279v-40.306l-21.871 5.774a16.165 16.165 0 0 0-12.04 15.63v18.902c0 36.326 29.448 65.774 65.774 65.774 5.864 0 11.544-.778 16.955-2.218C367.712 279.356 347 253.741 347 223.279z" style="" fill="#ffb09e" data-original="#ffb09e"></path><path d="m410.462 166.22-85.332 22.527a16.165 16.165 0 0 0-12.039 15.63v18.902c0 36.326 29.448 65.774 65.774 65.774h0c36.326 0 65.774-29.448 65.774-65.774v-31.354c0-.474-.012-.946-.036-1.414-.863-17.012-17.671-28.638-34.141-24.291zM346.719 220.755v12.293M408.96 220.755v12.293" style="stroke-width:15;stroke-linecap:round;stroke-linejoin:round;stroke-miterlimit:10;" fill="none" stroke="#000000" stroke-width="15" stroke-linecap="round" stroke-linejoin="round" stroke-miterlimit="10" data-original="#000000" class=""></path><path d="M375.279 250.08a8.711 8.711 0 0 1-6.146-8.324 8.707 8.707 0 0 1 8.707-8.707M312.517 395.636l-21.782-33.244" style="stroke-width:15;stroke-linecap:round;stroke-linejoin:round;stroke-miterlimit:10;" fill="none" stroke="#000000" stroke-width="15" stroke-linecap="round" stroke-linejoin="round" stroke-miterlimit="10" data-original="#000000" class=""></path><path d="M206.816 468.253H20.527V429.45a4.067 4.067 0 0 1 4.067-4.067h178.155a4.067 4.067 0 0 1 4.067 4.067v38.803z" style="" fill="#ffd15b" data-original="#ffd15b"></path><path d="M46.711 449.197a4.067 4.067 0 0 1 4.067-4.067h156.038v-15.68a4.067 4.067 0 0 0-4.067-4.067H24.594a4.067 4.067 0 0 0-4.067 4.067v38.803h26.184v-19.056z" style="" fill="#ffc344" data-original="#ffc344"></path><path d="M206.816 468.253H20.527V429.45a4.067 4.067 0 0 1 4.067-4.067h178.155a4.067 4.067 0 0 1 4.067 4.067v38.803z" style="stroke-width:15;stroke-linecap:round;stroke-linejoin:round;stroke-miterlimit:10;" fill="none" stroke="#000000" stroke-width="15" stroke-linecap="round" stroke-linejoin="round" stroke-miterlimit="10" data-original="#000000" class=""></path><path d="M128.189 425.383h39.881v42.87h-39.881z" style="" fill="#f3eae6" data-original="#f3eae6"></path><path d="M128.189 425.383h39.881v19.747h-39.881z" style="" fill="#e1d3ce" data-original="#e1d3ce"></path><path d="M128.189 425.383h39.881v42.87h-39.881z" style="stroke-width:15;stroke-linecap:round;stroke-linejoin:round;stroke-miterlimit:10;" fill="none" stroke="#000000" stroke-width="15" stroke-linecap="round" stroke-linejoin="round" stroke-miterlimit="10" data-original="#000000" class=""></path><path d="M185.126 403.948c0-10.248 7.196-18.803 16.807-20.92v-.515H46.844c-11.838 0-21.435 9.597-21.435 21.435s9.597 21.435 21.435 21.435h155.089v-.515c-9.611-2.117-16.807-10.672-16.807-20.92z" style="" fill="#c8effe" data-original="#c8effe"></path><path d="M59 403.948c0-11.838 9.597-21.435 21.435-21.435H46.844c-11.838 0-21.435 9.597-21.435 21.435s9.597 21.435 21.435 21.435h33.591c-11.838 0-21.435-9.597-21.435-21.435z" style="" fill="#99e6fc" data-original="#99e6fc"></path><path d="M46.844 382.513c-11.838 0-21.435 9.597-21.435 21.435s9.597 21.435 21.435 21.435h155.089v-.515c-9.611-2.117-16.807-10.673-16.807-20.92 0-10.248 7.196-18.803 16.807-20.92" style="stroke-width:15;stroke-linecap:round;stroke-linejoin:round;stroke-miterlimit:10;" fill="none" stroke="#000000" stroke-width="15" stroke-linecap="round" stroke-linejoin="round" stroke-miterlimit="10" data-original="#000000" class=""></path><path d="M201.933 381.998c-9.611-2.118-16.807-10.673-16.807-20.921s7.196-18.803 16.807-20.92v-.515H46.844c-11.838 0-21.435 9.597-21.435 21.435s9.597 21.435 21.435 21.435h155.089v-.514z" style="" fill="#f3eae6" data-original="#f3eae6"></path><path d="M59 361.078c0-11.838 9.597-21.435 21.435-21.435H46.844c-11.838 0-21.435 9.597-21.435 21.435s9.597 21.435 21.435 21.435h33.591c-11.838 0-21.435-9.597-21.435-21.435z" style="" fill="#e1d3ce" data-original="#e1d3ce"></path><path d="M155 382.513h46.933v-.515c-9.611-2.118-16.807-10.673-16.807-20.921s7.196-18.803 16.807-20.92v-.515H46.844c-11.838 0-21.435 9.597-21.435 21.435s9.597 21.435 21.435 21.435H120" style="stroke-width:15;stroke-linecap:round;stroke-linejoin:round;stroke-miterlimit:10;" fill="none" stroke="#000000" stroke-width="15" stroke-linecap="round" stroke-linejoin="round" stroke-miterlimit="10" data-original="#000000" class=""></path><path d="M178.347 339.643H48.995v-36.092a6.778 6.778 0 0 1 6.778-6.778h115.796a6.778 6.778 0 0 1 6.778 6.778v36.092z" style="" fill="#01d0fb" data-original="#01d0fb"></path><path d="M89.426 296.773H55.773a6.778 6.778 0 0 0-6.778 6.778v36.092h33.653v-36.092a6.777 6.777 0 0 1 6.778-6.778z" style="" fill="#01c0fa" data-original="#01c0fa"></path><path d="M178.347 339.643H48.995v-36.092a6.778 6.778 0 0 1 6.778-6.778h115.796a6.778 6.778 0 0 1 6.778 6.778v36.092z" style="stroke-width:15;stroke-linecap:round;stroke-linejoin:round;stroke-miterlimit:10;" fill="none" stroke="#000000" stroke-width="15" stroke-linecap="round" stroke-linejoin="round" stroke-miterlimit="10" data-original="#000000" class=""></path><path d="M107.855 296.773h34.459v42.87h-34.459z" style="" fill="#c8effe" data-original="#c8effe"></path><path d="M107.855 296.773h34.459v42.87h-34.459zM7.5 468.253h497" style="stroke-width:15;stroke-linecap:round;stroke-linejoin:round;stroke-miterlimit:10;" fill="none" stroke="#000000" stroke-width="15" stroke-linecap="round" stroke-linejoin="round" stroke-miterlimit="10" data-original="#000000" class=""></path><path d="M335.938 455.403c2.631-2.878 4.255-6.69 4.255-10.873v-33.476c0-8.889-7.272-16.161-16.161-16.161h-11.544c-8.889 0-16.161 7.272-16.161 16.161v19.347a66.757 66.757 0 0 1 39.611 25.002z" style="" fill="#ffcebf" data-original="#ffcebf"></path><path d="M316 411.054c0-7.484 5.162-13.803 12.097-15.62a16 16 0 0 0-4.064-.542h-11.544c-8.889 0-16.161 7.272-16.161 16.161V430.4A66.709 66.709 0 0 1 316 437.872v-26.818z" style="" fill="#ffb09e" data-original="#ffb09e"></path><path d="M335.938 455.403c2.631-2.878 4.255-6.69 4.255-10.873v-33.476c0-8.889-7.272-16.161-16.161-16.161h-11.544c-8.889 0-16.161 7.272-16.161 16.161v19.347a66.757 66.757 0 0 1 39.611 25.002z" style="stroke-width:15;stroke-linecap:round;stroke-linejoin:round;stroke-miterlimit:10;" fill="none" stroke="#000000" stroke-width="15" stroke-linecap="round" stroke-linejoin="round" stroke-miterlimit="10" data-original="#000000" class=""></path><path d="M343.587 468.253H230.529v-33.476a5.772 5.772 0 0 1 5.772-5.772h46.483c26.219 0 50.007 15.355 60.803 39.248z" style="" fill="#c8effe" data-original="#c8effe"></path><path d="M261.714 429.005h-25.413a5.772 5.772 0 0 0-5.772 5.772v33.476h25.413v-33.476a5.772 5.772 0 0 1 5.772-5.772z" style="" fill="#99e6fc" data-original="#99e6fc"></path><path d="M343.587 468.253H230.529v-33.476a5.772 5.772 0 0 1 5.772-5.772h46.483c26.219 0 50.007 15.355 60.803 39.248h0z" style="stroke-width:15;stroke-linecap:round;stroke-linejoin:round;stroke-miterlimit:10;" fill="none" stroke="#000000" stroke-width="15" stroke-linecap="round" stroke-linejoin="round" stroke-miterlimit="10" data-original="#000000" class=""></path><path d="M453.32 468.253H340.262c10.796-23.893 34.585-39.248 60.803-39.248h46.483a5.772 5.772 0 0 1 5.772 5.772v33.476z" style="" fill="#c8effe" data-original="#c8effe"></path><path d="M435.32 429.005h-34.255c-26.219 0-50.007 15.355-60.803 39.248h34.255c10.796-23.893 34.584-39.248 60.803-39.248z" style="" fill="#99e6fc" data-original="#99e6fc"></path><path d="M453.32 468.253H340.262h0c10.796-23.893 34.585-39.248 60.803-39.248h46.483a5.772 5.772 0 0 1 5.772 5.772v33.476z" style="stroke-width:15;stroke-linecap:round;stroke-linejoin:round;stroke-miterlimit:10;" fill="none" stroke="#000000" stroke-width="15" stroke-linecap="round" stroke-linejoin="round" stroke-miterlimit="10" data-original="#000000" class=""></path><circle cx="150.367" cy="139.895" r="96.148" style="" transform="rotate(-45.001 150.366 139.898)" fill="#fd6930" data-original="#fd6930"></circle><circle cx="150.367" cy="139.895" r="96.148" style="stroke-width:15;stroke-linecap:round;stroke-linejoin:round;stroke-miterlimit:10;" transform="rotate(-45.001 150.366 139.898)" fill="none" stroke="#000000" stroke-width="15" stroke-linecap="round" stroke-linejoin="round" stroke-miterlimit="10" data-original="#000000" class=""></circle><circle cx="150.367" cy="139.895" r="69.376" style="" fill="#ffffff" data-original="#ffffff"></circle><path d="M123 139.895c0-30.992 20.326-57.23 48.371-66.13a69.322 69.322 0 0 0-21.005-3.246c-38.315 0-69.376 31.061-69.376 69.376 0 38.315 31.061 69.376 69.376 69.376a69.326 69.326 0 0 0 21.005-3.246c-28.045-8.9-48.371-35.138-48.371-66.13z" style="" fill="#f9f3f1" data-original="#f9f3f1"></path><path d="M218.705 128c-5.644-32.644-34.082-57.48-68.339-57.48-38.315 0-69.376 31.061-69.376 69.376 0 38.315 31.061 69.376 69.376 69.376 30.212 0 55.9-19.318 65.419-46.271" style="stroke-width:15;stroke-linecap:round;stroke-linejoin:round;stroke-miterlimit:10;" fill="none" stroke="#000000" stroke-width="15" stroke-linecap="round" stroke-linejoin="round" stroke-miterlimit="10" data-original="#000000" class=""></path><path d="m175.648 121.311-25.281 18.584-27.819-34.745" style="stroke-width:15;stroke-linecap:round;stroke-linejoin:round;stroke-miterlimit:10;" fill="none" stroke="#000000" stroke-width="15" stroke-linecap="round" stroke-linejoin="round" stroke-miterlimit="10" data-original="#000000" class=""></path></g></svg>